<?xml version="1.0" encoding="utf-8"?>
<svg xmlns="http://www.w3.org/2000/svg" height="150" width="150" viewBox="0 0 150 150">
  <g>
    <ellipse cy="75" cx="75" ry="75" rx="75" fill="#FFFFFF" />
    <path id="path1" transform="rotate(0,75,75) translate(34,47.4801826401768) scale(0.287411724663312,0.287411724663312)  " fill="#000000" d="M82.0965779770631,145.795699361697L82.0965779770631,175.809462789432 203.164059971692,175.809462789432 203.164059971692,145.795699361697z M82.0965779770631,15.6915476359281L82.0965779770631,88.038199666873 203.164059971692,88.038199666873 203.164059971692,15.6915476359281z M61.2203534592409,0L224.080563877942,0 224.080563877942,65.9702675379667 246.628491734387,65.9702675379667C267.990674351575,65.9702675379667,285.305005406262,78.923957113162,285.305005406262,94.9158546961698L285.305005406262,168.698271993533 224.080563877942,168.698271993533 224.080563877942,191.501006368533 61.2203534592409,191.501006368533 61.2203534592409,168.698271993533 0,168.698271993533 0,94.9158546961698C0,78.923957113162,17.3099683274049,65.9702675379667,38.6321500290651,65.9702675379667L61.2203534592409,65.9702675379667z" />
  </g>
</svg>