<?xml version="1.0" encoding="utf-8"?>
<svg xmlns="http://www.w3.org/2000/svg" height="48" width="48" viewBox="0 0 48 48">
  <g>
    <path id="path1" transform="rotate(0,24,24) translate(11,11) scale(0.8125,0.8125)  " fill="#000000" d="M16.567993,13.166981L17.105011,13.166981 17.105011,22.150973C17.105011,22.850923 17.156006,23.316987 17.257996,23.548919 17.360016,23.780975 17.51001,23.953948 17.709992,24.067962 17.908998,24.181976 18.273011,24.238981 18.802003,24.238981L18.802003,24.677946 13.369993,24.677946 13.369993,24.238981C13.915007,24.238981 14.281005,24.185882 14.468017,24.080902 14.654998,23.973968 14.804015,23.798919 14.914001,23.554901 15.024016,23.310883 15.079009,22.842866 15.079009,22.150973L15.079009,17.841898C15.079009,16.629987 15.041991,15.843977 14.968993,15.486923 14.912017,15.225937 14.82199,15.045884 14.700011,14.942978 14.578002,14.840928 14.411009,14.791001 14.200011,14.791001 13.972014,14.791001 13.695006,14.851914 13.369993,14.972886L13.199003,14.533922z M16.09201,7.3199458C16.43399,7.3199456 16.725006,7.4399405 16.964996,7.6799302 17.205018,7.9208966 17.325013,8.2119117 17.325013,8.5529757 17.325013,8.8948939 17.205018,9.1879841 16.964996,9.4320021 16.725006,9.6758983 16.43399,9.7979684 16.09201,9.7979684 15.75,9.7979684 15.457,9.6758983 15.213012,9.4320021 14.968993,9.1879841 14.847014,8.8948939 14.847014,8.5529757 14.847014,8.2119117 14.96701,7.9208966 15.207,7.6799302 15.44699,7.4399405 15.742004,7.3199456 16.09201,7.3199458z M3,2C2.4490004,2,2,2.448,2,3L2,29C2,29.552,2.4490004,30,3,30L29,30C29.551,30,30.000001,29.552,30.000001,29L30.000001,3C30.000001,2.448,29.551,2,29,2z M3,0L29,0C30.654,0,32.000001,1.3460002,32.000001,3L32.000001,29C32.000001,30.654001,30.654,32,29,32L3,32C1.3459997,32,0,30.654001,0,29L0,3C0,1.3460002,1.3459997,0,3,0z" />
  </g>
</svg>