<?xml version="1.0" encoding="UTF-8" standalone="no"?>
<svg   xmlns="http://www.w3.org/2000/svg"   height="48"   width="48"   viewBox="0 0 48 48">
    <g
       id="g331"
       style="fill:#ffffff;fill-opacity:1"
       transform="matrix(1.7380273,0,0,1.7755976,-16.164175,-11.601457)">
        <path
           d="M 35.932734,16.663865 C 31.535442,18.16416 29.481828,12.723609 32.155791,10.159334 30.408087,8.3640985 29.210045,7.788843 26.91146,7.4317458 26.571426,8.862572 25.764606,10.087427 24.39228,10.368961 21.874319,10.884497 20.354523,9.0563551 19.565984,7.2221188 c -3.765973,1.2406994 -5.244331,3.3564692 -5.244331,3.3564692 0,0 0.762945,0.710538 0.837289,0.838508 1.599015,2.777558 -0.726382,6.238841 -4.614231,5.246769 -0.298597,1.962206 -0.298597,4.542324 0,6.503312 4.240071,-1.578296 6.617875,3.918318 3.776942,6.294904 1.701391,1.795235 2.684932,2.435085 5.453958,2.938434 0.475317,-3.9171 6.861628,-3.935381 7.344257,0 3.042029,-0.602068 5.035923,-3.146843 5.035923,-3.146843 0,0 -1.137104,-1.18098 -1.25898,-1.88908 -0.567943,-3.322344 1.85008,-4.6252 5.035923,-4.197415 0.55088,-1.975613 0.482629,-4.502105 0,-6.503312 z M 23.31977,24.953881 c -2.839715,0 -5.143174,-2.30224 -5.143174,-5.143174 0,-2.840933 2.303459,-5.143174 5.143174,-5.143174 2.842152,0 5.144392,2.302241 5.144392,5.143174 0,2.840934 -2.30224,5.143174 -5.144392,5.143174 z"
       />
    </g>
</svg>
